<?xml version="1.0" encoding="UTF-8" standalone="no"?><!DOCTYPE svg PUBLIC "-//W3C//DTD SVG 1.1//EN" "http://www.w3.org/Graphics/SVG/1.1/DTD/svg11.dtd"><svg width="100%" height="100%" viewBox="0 0 1273 312" version="1.1" xmlns="http://www.w3.org/2000/svg" xmlns:xlink="http://www.w3.org/1999/xlink" xml:space="preserve" xmlns:serif="http://www.serif.com/" style="fill-rule:evenodd;clip-rule:evenodd;stroke-linejoin:round;stroke-miterlimit:2;"><g><rect x="0" y="-0" width="1272.34" height="311.697" style="fill:none;"/><g><g><path d="M34.602,215.99c-3.096,1.099 -4.644,3.087 -4.644,5.962c-0,4.905 1.349,8.943 4.048,12.114c2.699,3.172 6.083,4.757 10.152,4.757c4.07,0 7.743,-2.303 11.016,-6.909c3.274,-4.606 11.39,-11.329 24.348,-20.168c12.958,-8.838 24.722,-17.212 35.293,-25.12c10.57,-7.908 20.19,-13.469 28.859,-16.683c6.635,-3.636 9.952,-6.892 9.952,-9.767c-0,-1.523 -0.708,-3.256 -2.123,-5.201c-4.689,-3.383 -8.316,-6.766 -10.881,-10.148c-2.123,-0.762 -4.202,-1.311 -6.236,-1.65c-1.504,-1.183 -3.517,-2.706 -6.038,-4.566c-2.521,-1.861 -3.914,-3.002 -4.18,-3.425c-1.772,-2.875 -6.444,-9.07 -14.018,-18.584c-7.574,-9.514 -13.841,-17.569 -18.802,-24.165l-18.471,-25.37c-3.609,-0.846 -6.601,-1.269 -8.977,-1.269c-2.025,0 -3.434,0.085 -4.226,0.254c-0.703,1.438 -1.055,3.002 -1.055,4.693l0,1.015c0,1.692 0.619,3.51 1.858,5.455c5.396,3.467 11.809,8.922 19.24,16.364c-0.177,1.522 2.788,5.707 8.894,12.554l11.153,13.064l8.761,11.92l5.835,5.07c1.591,1.353 2.828,2.452 3.711,3.296c0.884,0.846 1.415,1.395 1.59,1.647c0.885,1.859 2.1,3.93 3.647,6.212c1.547,2.282 2.32,3.93 2.32,4.945c-0,3.465 -1.331,6.486 -3.994,9.063c-2.663,2.577 -6.846,5.813 -12.549,9.706c-5.703,3.893 -10.566,7.279 -14.59,10.156c-4.023,2.877 -6.83,4.824 -8.421,5.839c-1.591,1.016 -3.824,2.793 -6.698,5.333c-2.874,2.54 -5.019,4.359 -6.433,5.458c-3.094,1.27 -5.305,2.497 -6.631,3.682c-1.326,1.185 -2.63,2.116 -3.912,2.793c-1.282,0.677 -2.366,1.608 -3.25,2.793c-0.796,0.339 -1.858,0.719 -3.185,1.142c-1.327,0.423 -2.167,0.761 -2.521,1.015l0,0.254c0,1.437 -2.477,2.96 -7.431,4.566c-4.953,1.607 -7.917,2.41 -8.89,2.41c-0.619,0 -1.459,-0.169 -2.521,-0.507Z" style="fill:#f5f5f4;fill-rule:nonzero;"/><path d="M296.121,73.979c-0.19,-0.482 -0.286,-1.447 -0.286,-2.894c0,-3.088 2.761,-5.982 8.283,-8.684c5.521,-2.701 8.615,-4.052 9.281,-4.052l1.143,0c1.618,0 2.999,0.796 4.141,2.388c1.142,1.592 1.713,3.546 1.713,5.861c0,1.448 -0.285,2.943 -0.856,4.487c-2.19,0.772 -3.285,3.618 -3.285,8.538l0.714,26.918c0,38.496 -0.595,69.346 -1.785,92.549c-1.19,23.204 -1.785,35.143 -1.785,35.819c0,4.438 1.571,8.104 4.713,10.999c-0.476,2.797 -0.857,5.185 -1.143,7.163c-0.285,1.978 -0.714,3.063 -1.285,3.256c-2.951,0.483 -6.259,1.689 -9.924,3.618c-3.665,1.93 -6.069,2.895 -7.211,2.895c-0.762,-0 -2.047,-0.82 -3.856,-2.46l-1.713,-10.276c4.093,-8.104 6.14,-18.717 6.14,-31.838l-0,-4.921l0.285,-46.021c0,-0.772 -0.618,-2.026 -1.856,-3.763c-1.238,-1.736 -2.642,-2.773 -4.212,-3.111c-1.571,-0.338 -3.451,-0.507 -5.641,-0.507l-7.283,0.869l-15.279,-0c-16.374,-0 -26.584,0.144 -30.63,0.434c-4.045,0.289 -6.997,0.796 -8.853,1.519c-1.856,0.724 -2.927,1.086 -3.213,1.086c-1.523,-0 -2.665,-0.724 -3.427,-2.171c-3.808,1.447 -7.235,2.171 -10.281,2.171l-11.424,-0.579c-14.851,-0 -22.276,2.557 -22.276,7.67l-0,3.473l-0.286,11.578l0.286,12.736l-0.572,22.287c0,5.595 0.691,11.818 2.071,18.669c1.38,6.85 2.071,11.384 2.071,13.603l-0.286,5.644l-4.998,3.329c-3.332,-1.64 -7.045,-2.46 -11.138,-2.46c-2.19,-0 -3.76,0.096 -4.712,0.289c-1.047,-1.158 -1.904,-1.737 -2.571,-1.737c-0.19,0 -0.38,0.097 -0.571,0.29c-0.381,-1.544 -0.571,-3.039 -0.571,-4.486c-0,-0.29 0.095,-1.544 0.286,-3.763c2.284,-18.717 3.665,-40.233 4.141,-64.546l1.428,-72.071l0.856,-24.602c0,-9.455 -1.475,-19.634 -4.426,-30.536l-1.999,-2.171c1.142,-0 1.713,-0.579 1.713,-1.737l0,-2.026c0,-1.64 0.571,-2.557 1.714,-2.75c3.141,-3.762 6.378,-5.644 9.71,-5.644c3.141,0 7.711,1.399 13.708,4.197c-4.284,51.038 -6.426,79.018 -6.426,83.938l0.572,8.249l-0.286,1.448c0,2.508 1.333,4.824 3.998,6.946c2.666,2.123 5.427,3.184 8.283,3.184l1.856,0c1.428,0 3.594,0.241 6.497,0.724c2.904,0.482 5.022,0.723 6.355,0.723c0.761,0 4.426,-0.434 10.995,-1.302c6.569,-0.868 11.376,-1.303 14.422,-1.303c8.473,0 15.898,0.193 22.277,0.579c6.378,0.386 9.662,0.579 9.853,0.579c1.237,0 2.142,-0.723 2.713,-2.171c3.903,1.062 7.568,1.592 10.995,1.592l13.851,0c0.952,-1.061 1.904,-1.592 2.856,-1.592c3.523,-0.482 6.021,-1.857 7.497,-4.124c1.476,-2.268 2.213,-4.028 2.213,-5.283l0,-8.249l0.286,-28.51l-0,-6.802c-0,-14.858 -1.19,-22.576 -3.57,-23.155Z" style="fill:#f5f5f4;fill-rule:nonzero;"/></g><g transform="matrix(2.12821,0,0,2.12821,-15.3287,-1296.29)"><text x="172.583px" y="678.236px" style="font-family:'Raleway-Regular', 'Raleway';font-size:50px;fill:#3e3f3e;">Kristina</text><text x="172.583px" y="728.236px" style="font-family:'Raleway-Regular', 'Raleway';font-size:50px;fill:#3e3f3e;">H<tspan x="209.083px 238.383px " y="728.236px 728.236px ">oﬀ</tspan>mann-<tspan x="419.883px 453.333px " y="728.236px 728.236px ">As</tspan>tr<tspan x="510.983px 540.333px " y="728.236px 728.236px ">ot</tspan>h</text></g></g></g></svg>