<?xml version="1.0" encoding="UTF-8" standalone="no"?><!DOCTYPE svg PUBLIC "-//W3C//DTD SVG 1.1//EN" "http://www.w3.org/Graphics/SVG/1.1/DTD/svg11.dtd"><svg width="100%" height="100%" viewBox="0 0 509 509" version="1.1" xmlns="http://www.w3.org/2000/svg" xmlns:xlink="http://www.w3.org/1999/xlink" xml:space="preserve" xmlns:serif="http://www.serif.com/" style="fill-rule:evenodd;clip-rule:evenodd;stroke-linecap:round;stroke-linejoin:round;stroke-miterlimit:1.5;"><g><circle cx="254.094" cy="254.094" r="254.094" style="fill:#fff;"/><g><path d="M295.527,112.553c-0,-5.741 -4.661,-10.401 -10.402,-10.401l-64.381,-0c-5.741,-0 -10.401,4.66 -10.401,10.401l-0,20.803c-0,5.74 4.66,10.401 10.401,10.401l64.381,-0c5.741,-0 10.402,-4.661 10.402,-10.401l-0,-20.803Z" style="fill:#fff;stroke:#12b9e2;stroke-width:16.67px;"/><path d="M426.976,196.596c-0,-19.829 -16.098,-35.927 -35.927,-35.927l-276.229,-0c-19.828,-0 -35.926,16.098 -35.926,35.927l-0,173.514c-0,19.829 16.098,35.927 35.926,35.927l276.229,0c19.829,0 35.927,-16.098 35.927,-35.927l-0,-173.514Z" style="fill:#12b9e2;stroke:#fff;stroke-width:12.5px;"/><path d="M69.703,201.008l0,-49.213c0,-6.697 5.429,-12.126 12.126,-12.126c56.201,-0 290.901,-0 345.344,-0c3,-0 5.878,1.192 7.999,3.313c2.122,2.122 3.314,4.999 3.314,7.999c-0,17.722 -0,50.027 -0,50.027l-184.392,62.032l-184.391,-62.032Z" style="fill:#12b9e2;"/><path d="M58.231,201.008c-0,4.926 3.145,9.303 7.814,10.874l184.391,62.031c2.374,0.799 4.943,0.799 7.317,0l184.391,-62.031c4.669,-1.571 7.814,-5.948 7.814,-10.874c0,-0 0,-32.305 0,-50.027c0,-6.043 -2.4,-11.838 -6.673,-16.111c-4.273,-4.273 -10.069,-6.674 -16.112,-6.674c-54.443,0 -289.143,0 -345.344,0c-13.033,0 -23.598,10.566 -23.598,23.599c-0,17.877 -0,49.213 -0,49.213Zm11.472,-0l0,-49.213c0,-6.697 5.429,-12.126 12.126,-12.126c56.201,-0 290.901,-0 345.344,-0c3,-0 5.878,1.192 7.999,3.313c2.122,2.122 3.314,4.999 3.314,7.999c-0,17.722 -0,50.027 -0,50.027l-184.392,62.032l-184.391,-62.032Z" style="fill:#fff;"/><path d="M271.622,254.642c0,-4.635 -3.763,-8.397 -8.397,-8.397l-20.58,-0c-4.635,-0 -8.398,3.762 -8.398,8.397l0,16.795c0,4.635 3.763,8.398 8.398,8.398l20.58,-0c4.634,-0 8.397,-3.763 8.397,-8.398l0,-16.795Z" style="fill:#fff;"/><path d="M284.122,254.642c0,-11.534 -9.364,-20.897 -20.897,-20.897l-20.58,-0c-11.534,-0 -20.898,9.363 -20.898,20.897l0,16.795c0,11.534 9.364,20.898 20.898,20.898l20.58,-0c11.533,-0 20.897,-9.364 20.897,-20.898l0,-16.795Zm-12.5,0c0,-4.635 -3.763,-8.397 -8.397,-8.397l-20.58,-0c-4.635,-0 -8.398,3.762 -8.398,8.397l0,16.795c0,4.635 3.763,8.398 8.398,8.398l20.58,-0c4.634,-0 8.397,-3.763 8.397,-8.398l0,-16.795Z" style="fill:#12b9e2;"/><g><circle cx="253.408" cy="263.04" r="43.947" style="fill:#fff;"/><path d="M253.408,206.592c-31.154,0 -56.448,25.293 -56.448,56.448c0,31.154 25.294,56.447 56.448,56.447c31.154,0 56.447,-25.293 56.447,-56.447c0,-31.155 -25.293,-56.448 -56.447,-56.448Zm-0,12.5c24.255,0 43.947,19.692 43.947,43.948c0,24.255 -19.692,43.947 -43.947,43.947c-24.256,0 -43.948,-19.692 -43.948,-43.947c0,-24.256 19.692,-43.948 43.948,-43.948Z" style="fill:#12b9e2;"/><text x="224.486px" y="295.998px" style="font-family:'Arial-BoldMT', 'Arial', sans-serif;font-weight:700;font-size:92.086px;fill:#12b9e2;stroke:#12b9e2;stroke-width:1px;stroke-linecap:butt;stroke-miterlimit:2;">€</text></g></g></g></svg>