<?xml version="1.0" encoding="UTF-8" standalone="no"?><!DOCTYPE svg PUBLIC "-//W3C//DTD SVG 1.1//EN" "http://www.w3.org/Graphics/SVG/1.1/DTD/svg11.dtd"><svg width="100%" height="100%" viewBox="0 0 509 509" version="1.1" xmlns="http://www.w3.org/2000/svg" xmlns:xlink="http://www.w3.org/1999/xlink" xml:space="preserve" xmlns:serif="http://www.serif.com/" style="fill-rule:evenodd;clip-rule:evenodd;stroke-linecap:round;stroke-linejoin:round;stroke-miterlimit:1;"><g><circle cx="254.094" cy="254.094" r="254.094" style="fill:#fff;"/><g><g><path d="M412.956,147.228l-245.112,0l-66.442,66.442l0,155.268l311.554,-0l0,-221.71Z" style="fill:#fff;"/><path d="M429.623,147.228c-0,-9.205 -7.462,-16.667 -16.667,-16.667l-245.112,0c-4.42,0 -8.66,1.756 -11.785,4.882l-66.442,66.441c-3.125,3.126 -4.881,7.365 -4.881,11.786l-0,155.268c-0,9.204 7.462,16.666 16.666,16.666l311.554,0c9.205,0 16.667,-7.462 16.667,-16.666l-0,-221.71Zm-16.667,0l-245.112,0l-66.442,66.442l0,155.268l311.554,-0l0,-221.71Z" style="fill:#12b9e2;"/><path d="M164.563,139.251l0,50.355c0,5.703 -2.278,11.17 -6.328,15.184c-4.051,4.015 -9.537,6.245 -15.24,6.194c-20.351,-0.18 -47.762,-0.422 -47.762,-0.422l69.33,-71.311Z" style="fill:none;stroke:#12b9e2;stroke-width:16.67px;"/></g><path d="M164.563,247.081l0,-27.279l186.302,0l27.279,13.639l-27.279,13.64l-186.302,-0Z" style="fill:#12b9e2;"/><path d="M184.826,294.374l0,-27.279l69.371,-0l27.279,13.639l-27.279,13.64l-69.371,-0Z" style="fill:#12b9e2;"/><path d="M233.151,340.444l0,-27.278l102.255,-0l27.279,13.639l-27.279,13.639l-102.255,0Z" style="fill:#12b9e2;"/></g></g></svg>